<?xml version="1.0" standalone="no"?>
<!DOCTYPE svg PUBLIC "-//W3C//DTD SVG 20010904//EN"
 "http://www.w3.org/TR/2001/REC-SVG-20010904/DTD/svg10.dtd">
<svg version="1.0" xmlns="http://www.w3.org/2000/svg"
 width="300.000000pt" height="300.000000pt" viewBox="0 0 300.000000 300.000000"
 preserveAspectRatio="xMidYMid meet">
<metadata>
Created by potrace 1.10, written by Peter Selinger 2001-2011
</metadata>
<g transform="translate(0.000000,300.000000) scale(0.100000,-0.100000)"
fill="#000000" stroke="none">
<path d="M1335 2708 c-22 -6 -45 -12 -51 -13 -8 -2 -7 -24 2 -76 8 -40 11 -81
8 -92 -6 -19 -3 -20 41 -14 26 4 58 7 71 7 16 0 24 6 24 16 0 14 -8 16 -49 10
-39 -5 -50 -3 -55 10 -13 35 -7 44 34 44 30 0 40 4 40 16 0 12 -9 15 -42 12
-38 -3 -41 -1 -45 25 -3 25 -1 27 34 28 21 1 41 1 46 0 4 0 7 8 7 19 0 22 -5
22 -65 8z"/>
<path d="M1805 2680 c-4 -7 -3 -16 3 -22 14 -14 45 -2 40 15 -6 16 -34 21 -43
7z"/>
<path d="M1460 2605 c0 -36 0 -68 0 -72 0 -5 6 -8 13 -8 7 0 13 18 15 50 2 32
9 55 19 62 27 21 43 -3 43 -63 0 -42 3 -54 15 -54 13 0 15 13 13 73 -3 71 -3
72 -31 75 -16 2 -35 -3 -44 -10 -13 -10 -17 -10 -20 0 -11 32 -23 5 -23 -53z"/>
<path d="M1735 2660 c-3 -5 -21 -10 -40 -10 -48 0 -65 -9 -65 -35 0 -32 23
-47 67 -43 35 3 38 5 37 33 0 17 6 35 14 41 10 7 11 13 4 18 -6 3 -13 2 -17
-4z m-27 -52 c-2 -15 -10 -23 -23 -23 -13 0 -21 8 -23 23 -3 18 1 22 23 22 22
0 26 -4 23 -22z"/>
<path d="M1104 2632 c-6 -4 -14 -19 -18 -34 -5 -21 -3 -28 8 -28 8 0 21 -21
31 -50 15 -44 20 -50 45 -50 15 0 33 7 40 15 13 16 9 18 -26 16 -39 -3 -61 82
-23 92 29 8 15 25 -15 20 -16 -4 -25 0 -28 11 -1 9 -8 12 -14 8z"/>
<path d="M1781 2583 c-17 -65 -18 -95 -4 -100 6 -2 18 18 26 49 23 79 24 92 6
96 -11 2 -19 -11 -28 -45z"/>
<path d="M1882 2597 c-6 -6 -20 -36 -32 -66 -16 -42 -18 -56 -8 -62 17 -11 25
-4 31 30 4 17 16 40 28 52 19 19 22 20 37 5 13 -13 14 -22 5 -48 -24 -70 -25
-78 -10 -78 20 0 61 102 52 129 -5 17 -15 21 -46 21 -22 0 -38 4 -34 9 9 15
-12 22 -23 8z"/>
<path d="M1627 2563 c-4 -3 -7 -13 -7 -21 0 -9 -8 -24 -17 -35 -17 -18 -17
-20 6 -38 15 -12 39 -19 67 -19 38 0 46 4 56 26 11 23 9 28 -12 45 -14 10 -35
19 -47 19 -14 0 -23 6 -23 15 0 16 -12 20 -23 8z m47 -53 c32 -12 35 -40 4
-40 -32 0 -52 15 -45 34 7 19 8 19 41 6z"/>
<path d="M984 2543 c-9 -10 -23 -18 -31 -19 -26 -4 -26 -12 2 -69 30 -61 42
-72 57 -57 6 6 2 21 -11 43 -25 41 -27 75 -5 83 22 8 37 -6 59 -54 10 -22 22
-40 26 -40 18 0 20 23 4 58 -34 72 -66 90 -101 55z"/>
<path d="M2026 2495 c-14 -13 -26 -28 -26 -34 0 -5 -2 -16 -6 -24 -8 -21 43
-77 71 -77 13 0 26 4 29 8 7 11 -11 38 -20 30 -13 -14 -44 13 -44 37 l0 25 40
-25 c46 -29 56 -31 64 -9 12 31 6 53 -20 73 -35 27 -55 26 -88 -4z m82 -32 c2
-13 1 -23 -2 -23 -12 0 -56 24 -56 30 0 30 54 23 58 -7z"/>
<path d="M820 2450 c-27 -27 -25 -62 5 -98 34 -40 57 -44 94 -15 33 26 42 63
15 63 -8 0 -13 -4 -10 -9 10 -15 -31 -43 -53 -36 -29 9 -26 22 7 39 48 25 57
42 30 60 -31 22 -64 20 -88 -4z m60 -10 c13 -9 11 -13 -10 -30 -14 -11 -28
-20 -32 -20 -12 0 -9 35 4 48 14 14 19 15 38 2z"/>
<path d="M2161 2409 c-28 -26 -43 -63 -34 -86 16 -43 93 -74 93 -38 0 8 -8 15
-18 15 -26 0 -54 33 -46 54 5 14 12 12 45 -15 32 -25 42 -29 54 -19 22 19 18
64 -8 88 -29 28 -57 28 -86 1z m73 -25 c17 -17 20 -27 10 -37 -10 -9 -65 33
-59 44 9 14 32 11 49 -7z"/>
<path d="M706 2354 c-9 -8 -16 -24 -16 -35 0 -11 -7 -19 -16 -19 -18 0 -44
-24 -44 -40 0 -7 -6 -10 -14 -7 -8 3 -17 -2 -21 -10 -4 -12 10 -32 46 -65 44
-41 55 -47 66 -35 11 11 7 19 -27 51 -43 39 -45 43 -30 66 8 12 12 12 36 0 15
-8 33 -25 42 -37 16 -26 37 -30 45 -9 3 8 -4 21 -18 30 -14 9 -32 28 -41 42
-16 23 -16 26 -1 42 16 15 20 14 55 -21 35 -34 72 -49 72 -28 0 14 -88 91
-104 91 -8 0 -22 -7 -30 -16z"/>
<path d="M2267 2279 c-27 -27 -46 -53 -42 -59 10 -16 21 -12 58 25 32 32 36
34 65 23 17 -7 34 -9 38 -6 10 11 -6 28 -27 28 -13 0 -19 6 -17 17 6 32 -27
20 -75 -28z"/>
<path d="M537 2150 c-17 -14 -23 -26 -20 -40 4 -14 0 -20 -11 -20 -29 0 -17
-29 22 -49 20 -11 57 -34 82 -50 51 -35 60 -37 60 -17 0 8 -13 23 -29 32 l-30
18 25 22 c30 29 31 64 1 91 -37 31 -71 36 -100 13z m67 -35 c46 -43 15 -84
-40 -54 -26 13 -32 47 -12 67 17 17 21 15 52 -13z"/>
<path d="M2344 2115 c-9 -23 10 -40 25 -22 9 11 8 17 -4 27 -12 10 -16 9 -21
-5z"/>
<path d="M2560 2081 c0 -6 -4 -11 -10 -11 -5 0 -18 -8 -28 -17 -33 -32 -62
-53 -71 -53 -16 0 -31 -27 -25 -44 5 -12 14 -16 33 -12 75 15 101 17 101 9 0
-4 -22 -26 -49 -47 -35 -28 -47 -44 -44 -57 6 -22 5 -22 35 -10 13 5 46 12 73
15 75 10 96 17 92 30 -2 6 -13 10 -23 8 -36 -5 -79 -13 -101 -17 -36 -8 -27 7
32 50 77 57 66 69 -47 51 -28 -4 -48 -3 -48 2 0 5 25 26 56 46 52 35 63 55 36
64 -7 2 -12 -1 -12 -7z"/>
<path d="M451 1991 c-22 -20 -34 -55 -27 -79 7 -22 57 -52 85 -52 52 0 83 88
44 122 -27 23 -80 28 -102 9z m63 -21 c20 -7 26 -16 26 -40 0 -36 -19 -47 -52
-29 -40 21 -46 39 -22 63 18 19 16 19 48 6z"/>
<path d="M327 1846 c-4 -9 1 -17 11 -20 9 -3 49 -14 88 -25 77 -23 99 -21 107
9 4 17 1 19 -38 13 -26 -3 -45 -1 -49 6 -4 6 -18 11 -31 11 -13 0 -27 5 -30
10 -9 15 -52 12 -58 -4z"/>
<path d="M2542 1793 c-7 -3 -19 -18 -27 -34 -14 -25 -14 -33 -1 -64 16 -38 36
-47 36 -15 0 11 -4 20 -10 20 -15 0 -12 46 4 59 18 16 36 -13 36 -58 0 -35 14
-39 48 -15 28 19 30 74 4 97 -18 16 -63 21 -90 10z m76 -35 c15 -15 16 -45 1
-53 -14 -9 -18 -4 -25 33 -7 33 3 41 24 20z"/>
<path d="M369 1744 c-7 -9 -13 -31 -13 -50 0 -42 25 -63 75 -64 48 0 71 26 67
74 -4 44 -23 48 -24 6 -1 -29 -19 -60 -35 -60 -13 0 -11 77 1 85 17 11 0 25
-29 25 -16 0 -35 -7 -42 -16z m49 -41 c-3 -30 -25 -42 -34 -19 -9 22 2 46 21
46 12 0 15 -8 13 -27z"/>
<path d="M2569 1633 l-35 -4 -2 -54 c-1 -36 3 -57 13 -65 20 -17 95 -14 113 3
16 16 19 53 8 80 -7 14 -3 17 28 17 25 0 36 4 36 15 0 12 -13 15 -62 13 -35
-1 -79 -3 -99 -5z m69 -45 c22 -22 14 -46 -18 -53 -39 -9 -70 2 -70 24 0 25
20 41 50 41 14 0 31 -5 38 -12z"/>
<path d="M346 1602 c-9 -15 9 -31 49 -45 41 -14 59 -37 29 -37 -44 0 -108 -39
-91 -56 1 -1 35 9 75 23 62 22 72 29 72 49 0 13 -5 24 -11 24 -8 0 -89 33
-111 46 -4 3 -9 1 -12 -4z"/>
<path d="M368 1429 c-19 -10 -25 -73 -10 -95 23 -35 90 -33 120 4 26 34 0 123
-28 96 -8 -8 -9 -14 -1 -18 6 -4 11 -20 11 -37 0 -22 -5 -29 -20 -29 -17 0
-20 7 -20 45 0 48 -14 57 -52 34z m37 -50 c8 -35 4 -42 -19 -33 -24 9 -20 64
5 64 4 0 10 -14 14 -31z"/>
<path d="M2526 1378 c-9 -34 -7 -111 3 -127 5 -7 31 -19 57 -26 79 -20 109 6
128 112 6 36 11 33 -108 48 -27 4 -54 9 -61 11 -7 3 -15 -5 -19 -18z m117 -34
c29 -5 37 -11 37 -28 0 -51 -43 -73 -107 -52 -23 7 -37 47 -28 77 5 16 13 19
33 15 15 -3 44 -8 65 -12z"/>
<path d="M384 1260 c-40 -16 -70 -89 -44 -105 6 -3 10 -19 10 -35 0 -34 12
-44 37 -31 10 5 45 17 78 26 33 10 64 21 68 25 12 11 -11 88 -34 111 -20 20
-76 25 -115 9z m116 -63 c5 -17 9 -31 8 -32 -2 -1 -31 -11 -66 -22 -71 -23
-76 -20 -70 39 2 26 10 36 38 49 43 21 75 9 90 -34z"/>
<path d="M2483 1173 c-23 -27 -28 -48 -17 -77 9 -24 33 -1 27 24 -6 23 12 50
33 50 14 0 10 -48 -8 -82 -7 -14 -3 -19 18 -24 33 -8 56 5 68 38 27 77 -68
133 -121 71z m102 -33 c11 -18 -6 -50 -26 -50 -22 0 -22 0 -9 34 10 27 24 33
35 16z"/>
<path d="M560 1025 c0 -9 7 -18 15 -21 19 -8 20 -64 2 -64 -7 0 -19 16 -26 36
-16 45 -36 53 -61 24 -32 -37 -20 -83 26 -100 69 -27 132 56 88 118 -17 25
-44 29 -44 7z m-21 -71 c6 -15 9 -29 6 -32 -10 -11 -40 14 -43 37 -5 30 22 27
37 -5z"/>
<path d="M2411 1021 c-9 -16 -8 -24 6 -39 10 -10 33 -35 51 -55 18 -21 37 -35
42 -32 16 10 12 17 -29 63 l-40 43 61 -3 c76 -4 94 17 21 25 -26 3 -60 8 -75
12 -21 6 -29 3 -37 -14z"/>
<path d="M2339 901 c-31 -32 -41 -85 -14 -75 8 4 15 14 15 23 0 22 19 41 42
41 25 0 23 -17 -7 -52 -31 -36 -31 -46 -3 -57 80 -29 122 77 49 126 -43 29
-47 29 -82 -6z m91 -66 c0 -26 -21 -42 -39 -30 -7 4 -5 15 5 31 21 31 34 31
34 -1z"/>
<path d="M663 871 c-35 -33 -61 -43 -82 -31 -25 13 -41 13 -41 -1 0 -6 9 -13
21 -16 12 -4 18 -11 15 -20 -9 -24 22 -26 46 -3 13 12 35 29 51 38 27 16 35
36 19 46 -5 3 -18 -3 -29 -13z"/>
<path d="M709 833 c-1 -4 -1 -12 0 -17 1 -4 -14 -22 -34 -38 -37 -32 -43 -52
-22 -79 11 -15 49 -39 61 -39 17 0 2 28 -19 38 -26 12 -35 42 -12 42 6 0 21
-7 31 -15 31 -23 65 -19 78 10 13 29 -3 55 -33 55 -10 0 -19 9 -21 22 -3 21
-27 38 -29 21z m49 -75 c2 -12 -3 -18 -15 -18 -26 0 -47 16 -38 29 10 18 49 9
53 -11z"/>
<path d="M2243 793 c-21 -8 -15 -23 10 -23 14 0 46 -22 82 -55 63 -58 70 -62
81 -44 9 16 -115 128 -141 128 -11 0 -26 -3 -32 -6z"/>
<path d="M2172 724 c-34 -23 -31 -86 5 -114 50 -39 112 -9 113 56 0 59 -68 93
-118 58z m70 -31 c21 -19 24 -61 4 -69 -35 -14 -88 44 -65 72 15 19 38 18 61
-3z"/>
<path d="M797 679 c-25 -21 -50 -39 -56 -39 -6 0 -11 -7 -11 -15 0 -24 23 -18
59 16 18 16 36 28 38 25 3 -3 -3 -25 -12 -50 -23 -61 -12 -74 33 -40 21 16 40
33 44 38 17 25 6 -32 -11 -61 -17 -27 -18 -33 -5 -43 11 -10 17 -6 29 24 8 20
21 51 29 70 13 30 13 36 0 47 -11 9 -21 5 -49 -20 -20 -17 -40 -31 -45 -31
-13 0 -13 1 4 36 41 84 20 103 -47 43z"/>
<path d="M2051 701 c-11 -7 -11 -13 3 -32 21 -30 20 -39 -2 -39 -11 0 -27 -9
-37 -20 -22 -24 -14 -74 17 -107 28 -30 59 -29 82 2 10 13 22 23 25 20 4 -2
13 0 20 4 10 6 0 29 -39 92 -29 46 -53 85 -54 86 -1 1 -8 -2 -15 -6z m41 -108
c22 -20 23 -56 3 -73 -30 -25 -80 45 -55 75 16 19 29 19 52 -2z"/>
<path d="M975 611 c-3 -5 2 -16 10 -24 19 -20 19 -32 -2 -67 -13 -23 -20 -27
-34 -19 -23 12 -38 -10 -15 -23 9 -5 16 -18 16 -28 0 -24 -1 -24 40 -4 24 12
29 19 19 25 -12 7 -12 12 0 31 28 45 31 78 10 99 -21 21 -35 24 -44 10z"/>
<path d="M1872 537 c-12 -13 -22 -26 -22 -30 0 -14 28 -7 34 9 4 10 15 14 33
12 41 -5 38 -23 -7 -43 -44 -20 -49 -34 -22 -58 26 -24 59 -21 87 8 29 28 31
45 10 84 -24 47 -78 56 -113 18z m86 -74 c-2 -11 -12 -18 -27 -18 -29 0 -40
21 -14 28 35 9 44 7 41 -10z"/>
<path d="M1097 515 c-9 -20 -17 -43 -17 -51 0 -12 -6 -15 -24 -10 -31 8 -43
-9 -17 -24 31 -16 16 -43 -20 -35 -33 8 -39 -9 -10 -25 31 -16 62 -12 68 9 3
11 14 22 26 25 16 4 18 8 8 19 -9 11 -7 25 9 62 23 55 25 65 7 65 -7 0 -21
-16 -30 -35z"/>
<path d="M1785 511 c-3 -6 -1 -28 5 -50 11 -43 5 -71 -16 -71 -8 0 -14 -7 -14
-15 0 -19 29 -20 36 0 4 10 14 13 30 9 13 -3 24 -5 24 -3 -1 2 -9 33 -19 68
-17 63 -32 83 -46 62z"/>
<path d="M1177 492 c-21 -22 -23 -95 -4 -111 8 -6 27 -14 44 -17 25 -5 34 -1
56 26 32 38 34 73 7 100 -26 26 -81 26 -103 2z m67 -8 c20 -8 21 -67 1 -84
-25 -21 -55 -3 -55 34 0 45 19 63 54 50z"/>
<path d="M1372 480 c-39 -9 -39 -9 -42 -35 -5 -46 1 -56 45 -75 50 -21 61 -50
19 -50 -14 0 -34 4 -44 10 -14 7 -20 6 -24 -7 -9 -22 -3 -25 52 -31 56 -5 75
10 70 55 -2 22 -13 32 -50 50 -52 25 -59 37 -29 53 21 11 66 -1 72 -19 3 -6
10 -7 18 -2 33 21 -37 62 -87 51z"/>
<path d="M1617 483 c-14 -13 -6 -33 13 -33 13 0 20 7 20 20 0 19 -20 27 -33
13z"/>
</g>
</svg>
